<svg width="100" height="100" viewBox="0 0 100 100" fill="none" xmlns="http://www.w3.org/2000/svg">
  <circle cx="50" cy="50" r="50" fill="#DBEAFE"/>
  <path d="M50 35C50 37.2091 48.2091 39 46 39C43.7909 39 42 37.2091 42 35C42 32.7909 43.7909 31 46 31C48.2091 31 50 32.7909 50 35Z" fill="#3B82F6"/>
  <path d="M50 65C50 67.2091 48.2091 69 46 69C43.7909 69 42 67.2091 42 65C42 62.7909 43.7909 61 46 61C48.2091 61 50 62.7909 50 65Z" fill="#3B82F6"/>
  <path d="M35 50C35 52.2091 33.2091 54 31 54C28.7909 54 27 52.2091 27 50C27 47.7909 28.7909 46 31 46C33.2091 46 35 47.7909 35 50Z" fill="#3B82F6"/>
  <path d="M69 50C69 52.2091 67.2091 54 65 54C62.7909 54 61 52.2091 61 50C61 47.7909 62.7909 46 65 46C67.2091 46 69 47.7909 69 50Z" fill="#3B82F6"/>
  <path d="M54 31C56.2091 31 58 32.7909 58 35C58 37.2091 56.2091 39 54 39C51.7909 39 50 37.2091 50 35C50 32.7909 51.7909 31 54 31Z" fill="#3B82F6"/>
  <path d="M54 61C56.2091 61 58 62.7909 58 65C58 67.2091 56.2091 69 54 69C51.7909 69 50 67.2091 50 65C50 62.7909 51.7909 61 54 61Z" fill="#3B82F6"/>
  <path d="M39 46C41.2091 46 43 47.7909 43 50C43 52.2091 41.2091 54 39 50C36.7909 50 35 48.2091 35 46C35 43.7909 36.7909 42 39 42C41.2091 42 43 43.7909 43 46Z" fill="#3B82F6"/>
  <path d="M73 50C73 52.2091 71.2091 54 69 50C66.7909 50 65 48.2091 65 46C65 43.7909 66.7909 42 69 42C71.2091 42 73 43.7909 73 46C73 48.2091 71.2091 50 69 50Z" fill="#3B82F6"/>
</svg>
