<svg width="64" height="64" viewBox="0 0 24 24" fill="none" xmlns="http://www.w3.org/2000/svg">
  <path d="M6 19.9C3.5 19.4 2 17.9 2 16C2 14.3 3.3 12.9 5 12.9H5.1C5 12.6 5 12.3 5 12C5 8.7 7.7 6 11 6C13.2 6 15.1 7.2 16.2 9.1C16.4 9 16.7 9 17 9C19.2 9 21 10.8 21 13C21 13.9 20.7 14.7 20.2 15.4" stroke="#3B82F6" stroke-width="2" stroke-linecap="round" stroke-linejoin="round"/>
  <path d="M15 13L12 10M12 10L9 13M12 10V18" stroke="#3B82F6" stroke-width="2" stroke-linecap="round" stroke-linejoin="round"/>
</svg>
