<svg width="64" height="64" viewBox="0 0 24 24" fill="none" xmlns="http://www.w3.org/2000/svg">
  <path d="M15 4V2M15 16V14M8 9H6M20 9H18M17.8 11H17.2C16.0799 11 15.5198 11 15.092 10.782C14.7157 10.5903 14.4097 10.2843 14.218 9.90798C14 9.4802 14 8.9201 14 7.8V7.2C14 6.0799 14 5.51984 14.218 5.09202C14.4097 4.71569 14.7157 4.40973 15.092 4.21799C15.5198 4 16.0799 4 17.2 4H17.8C18.9201 4 19.4802 4 19.908 4.21799C20.2843 4.40973 20.5903 4.71569 20.782 5.09202C21 5.51984 21 6.07989 21 7.2V7.8C21 8.9201 21 9.48016 20.782 9.90798C20.5903 10.2843 20.2843 10.5903 19.908 10.782C19.4802 11 18.9201 11 17.8 11Z" stroke="#8B5CF6" stroke-width="2" stroke-linecap="round" stroke-linejoin="round"/>
  <path d="M6.8 20H7.4C8.51984 20 9.0799 20 9.50772 19.782C9.88405 19.5903 10.19 19.2843 10.3817 18.908C10.6 18.4802 10.6 17.9201 10.6 16.8V16.2C10.6 15.0799 10.6 14.5198 10.3817 14.092C10.19 13.7157 9.88405 13.4097 9.50772 13.218C9.0799 13 8.51984 13 7.4 13H6.8C5.67989 13 5.11984 13 4.69202 13.218C4.31569 13.4097 4.00973 13.7157 3.81799 14.092C3.6 14.5198 3.6 15.0799 3.6 16.2V16.8C3.6 17.9201 3.6 18.4802 3.81799 18.908C4.00973 19.2843 4.31569 19.5903 4.69202 19.782C5.11984 20 5.67989 20 6.8 20Z" stroke="#8B5CF6" stroke-width="2" stroke-linecap="round" stroke-linejoin="round"/>
  <path d="M13 12L4 21" stroke="#8B5CF6" stroke-width="2" stroke-linecap="round" stroke-linejoin="round"/>
</svg>
